<svg class="svg-icon" style="width: 1em; height: 1em;vertical-align: middle;fill: currentColor;overflow: hidden;" viewBox="0 0 1024 1024" version="1.1" xmlns="http://www.w3.org/2000/svg"><path d="M115.1 657.2c108.5 108.5 377 115.3 515.8-23.5s127.4-402.6 18.8-511.1" fill="#BC541D" /><path d="M351.5 746.3c-99.5 0-189.4-30.9-242-83.5l11.3-11.3c105 105 368.5 112.5 504.5-23.5 62.5-62.5 98.9-157.7 99.8-261.3 0.9-97.7-29.3-186.8-81-238.5l11.3-11.3c54.6 54.6 86.7 148.1 85.7 249.9-0.5 50.7-9.4 101.3-25.9 146.4-18.1 49.6-44.5 92-78.6 126.1-65.6 65.6-165.7 104.6-274.7 106.9-3.5 0.1-6.9 0.1-10.4 0.1z"  /><path d="M115.150119 657.23584a154.8 378.1 44.999 1 0 534.704815-534.72348 154.8 378.1 44.999 1 0-534.704815 534.72348Z" fill="#BC541D" /><path d="M176.5 686.9c-28.2 0-51-8-67-24-31.7-31.7-32-90.1-0.8-164.5 30.2-72.1 86.6-151.5 158.7-223.7C339.5 202.6 418.9 146.2 491 116c74.4-31.2 132.8-30.9 164.5 0.8 31.7 31.7 32 90.1 0.8 164.5-30.2 72.1-86.6 151.5-158.7 223.7S346.1 633.5 274 663.7c-36.9 15.4-69.8 23.2-97.5 23.2z m412-578h-2.2c-25.5 0.4-55.5 7.8-89.1 21.9C427 160.2 349.4 215.4 278.7 286 208 356.7 152.9 434.3 123.5 504.5c-14.1 33.7-21.5 63.7-21.9 89.1-0.4 25.2 6.1 44.7 19.3 57.8s32.7 19.7 57.8 19.3c25.5-0.4 55.5-7.8 89.1-21.9 70.2-29.4 147.8-84.6 218.5-155.2C557 423 612.1 345.4 641.6 275.2c14.1-33.7 21.5-63.7 21.9-89.1 0.4-25.2-6.1-44.7-19.3-57.8-12.8-12.9-31.6-19.4-55.7-19.4z"  /><path d="M576.6 195.8c43.9 43.9-7.4 166.4-114.6 273.6S232.3 627.9 188.4 584c-43.9-43.9-90.1-263.9 17.1-371.1s327.2-61 371.1-17.1z" fill="#F3D9A7" /><path d="M232.9 607.7c-21.1 0-38.2-6-50.2-18s-23.7-35-32.9-64.7c-9.7-31.3-15.8-66.7-17.5-102.4-2.6-52.6 2.7-150.6 67.5-215.4 64.8-64.8 162.7-70.1 215.3-67.6 35.6 1.8 71 7.8 102.4 17.5 29.7 9.2 52.7 20.9 64.7 32.9 23.7 23.7 24.1 66.9 1.1 121.8-22 52.6-63.1 110.5-115.7 163.1-52.6 52.6-110.5 93.7-163.1 115.7-27 11.4-51.2 17.1-71.6 17.1z m161.8-452.5c-52.1 0-130.4 10.2-183.6 63.4-60.4 60.4-65.3 153.3-62.9 203.2 3.6 72.9 26.1 136.9 45.8 156.5 18.5 18.5 56.5 17.7 104.3-2.4 50.7-21.3 106.8-61.1 158-112.2 51.1-51.1 91-107.2 112.2-158 20-47.8 20.9-85.8 2.4-104.3-19.7-19.7-83.6-42.2-156.5-45.8-6-0.2-12.6-0.4-19.7-0.4z"  /><path d="M233.4 536.4c-1.6 0-3.2-0.5-4.6-1.4-41.1-28.6-45.2-107.8-41.5-169.3 0.3-4.4 4.1-7.8 8.5-7.5 4.4 0.3 7.8 4.1 7.5 8.5-4.9 81.1 7.4 136.2 34.6 155.1 3.6 2.5 4.5 7.5 2 11.1-1.5 2.3-4 3.5-6.5 3.5z"  /><path d="M201.4 309s-1.7 10-3.6 25.6" fill="#FFFFFF" /><path d="M197.9 342.6c-0.3 0-0.6 0-0.9-0.1-4.4-0.5-7.5-4.5-7-8.9 1.8-15.7 3.6-25.7 3.6-26.1 0.8-4.4 4.9-7.3 9.3-6.5 4.4 0.8 7.3 4.9 6.5 9.3 0 0.1-1.7 9.9-3.5 25.2-0.6 4.1-4 7.1-8 7.1z"  /><path d="M355.2 625c0 117.4 139.1 266.2 286.6 266.2S923.5 742.4 923.5 625" fill="#BC541D" /><path d="M641.9 899.2c-70.2 0-144.7-33.3-204.2-91.4-56.7-55.1-90.5-123.5-90.5-182.8h16c0 112.7 135.1 258.2 278.6 258.2 65.8 0 135.3-31.6 190.5-86.7 52.1-52 83.1-116.1 83.1-171.5h16c0 59.5-32.8 127.9-87.8 182.8-58.1 58.1-131.7 91.4-201.7 91.4z"  /><path d="M355.3 625a284.1 118.4 0 1 0 568.2 0 284.1 118.4 0 1 0-568.2 0Z" fill="#BC541D" /><path d="M639.4 751.4c-76.9 0-149.4-12.5-204-35.3-56.8-23.7-88.1-56-88.1-91.1 0-35.1 31.3-67.4 88.1-91.1 54.6-22.8 127.1-35.3 204-35.3s149.4 12.5 204 35.3c56.8 23.7 88.1 56 88.1 91.1 0 35.1-31.3 67.4-88.1 91.1-54.7 22.8-127.1 35.3-204 35.3z m0-236.8c-74.9 0-145.1 12.1-197.8 34.1-49.8 20.7-78.3 48.6-78.3 76.3 0 27.8 28.5 55.6 78.3 76.3 52.7 22 123 34.1 197.8 34.1 74.9 0 145.1-12.1 197.8-34.1 49.8-20.7 78.3-48.6 78.3-76.3 0-27.8-28.5-55.6-78.3-76.3-52.7-22-123-34.1-197.8-34.1z"  /><path d="M433.1 625a206.3 86 0 1 0 412.6 0 206.3 86 0 1 0-412.6 0Z" fill="#5F1E03" /><path d="M639.4 719c-56.1 0-109-9.2-149-25.8-42.1-17.6-65.3-41.8-65.3-68.2s23.2-50.6 65.3-68.2c39.9-16.6 92.8-25.8 149-25.8 56.1 0 109 9.2 149 25.8 42.1 17.6 65.3 41.8 65.3 68.2s-23.2 50.6-65.3 68.2c-40 16.6-92.9 25.8-149 25.8z m0-172c-54.1 0-104.8 8.7-142.8 24.6-35.3 14.7-55.5 34.2-55.5 53.4s20.2 38.7 55.5 53.4c38 15.8 88.7 24.6 142.8 24.6s104.8-8.7 142.8-24.6c35.3-14.7 55.5-34.2 55.5-53.4s-20.2-38.7-55.5-53.4c-38-15.9-88.8-24.6-142.8-24.6z"  /></svg>